<svg width="213" height="164" viewBox="0 0 213 164" fill="none" xmlns="http://www.w3.org/2000/svg">
<path d="M7.61406 78V20.88H25.8541C33.2141 20.88 38.5741 22.3733 41.9341 25.36C45.3474 28.3467 47.0541 32.4533 47.0541 37.68C47.0541 40.7733 46.3607 43.68 44.9741 46.4C43.5874 49.12 41.2674 51.3067 38.0141 52.96C34.8141 54.6133 30.4407 55.44 24.8941 55.44H19.6941V78H7.61406ZM1.21406 69.44V61.68H32.0141V69.44H1.21406ZM1.21406 55.44V45.52H24.6541V55.44H1.21406ZM23.6941 45.52C25.9874 45.52 27.9607 45.28 29.6141 44.8C31.2674 44.2667 32.5474 43.44 33.4541 42.32C34.3607 41.2 34.8141 39.7867 34.8141 38.08C34.8141 35.6267 34.0407 33.8133 32.4941 32.64C30.9474 31.4133 28.5207 30.8 25.2141 30.8H19.6941V45.52H23.6941ZM77.0228 62V60.64H75.3428C67.1828 60.64 63.1028 62.4533 63.1028 66.08C63.1028 67.4667 63.6628 68.5067 64.7828 69.2C65.9028 69.84 67.2361 70.16 68.7828 70.16C71.3961 70.16 73.4228 69.44 74.8628 68C76.3028 66.5067 77.0228 64.5067 77.0228 62ZM59.5828 50.72L52.9428 43.6C57.6895 39.12 63.6095 36.88 70.7028 36.88C77.2628 36.88 81.9561 38.56 84.7828 41.92C87.6095 45.2267 89.0228 50.56 89.0228 57.92V78H77.0228V73.76H76.7828C75.8228 75.36 74.3028 76.64 72.2228 77.6C70.1428 78.5067 67.9028 78.96 65.5028 78.96C63.1561 78.96 60.9428 78.6133 58.8628 77.92C56.8361 77.1733 55.0228 75.8133 53.4228 73.84C51.8228 71.8667 51.0228 69.4133 51.0228 66.48C51.0228 57.52 59.5561 53.04 76.6228 53.04V52.4C76.6228 50.5333 75.9561 49.12 74.6228 48.16C73.2895 47.1467 71.5561 46.64 69.4228 46.64C65.7961 46.64 62.5161 48 59.5828 50.72ZM139.135 38.16L121.295 84C119.589 88.48 117.429 91.7867 114.815 93.92C112.202 96.1067 108.522 97.2 103.775 97.2C101.322 97.2 98.922 96.9067 96.5753 96.32L98.0153 85.28C99.562 85.76 100.975 86 102.255 86C104.175 86 105.589 85.5733 106.495 84.72C107.455 83.92 108.282 82.56 108.975 80.64L110.255 77.36L93.6153 38.16H108.175L117.055 63.76H117.295L125.215 38.16H139.135Z" fill="#0054A8"/>
<path d="M201.486 78H184.926L179.566 72.48C175.406 76.9067 169.886 79.12 163.006 79.12C157.406 79.12 152.606 77.68 148.606 74.8C144.659 71.8667 142.686 67.68 142.686 62.24C142.686 55.2533 146.633 50.0267 154.526 46.56C150.633 42.7733 148.686 38.6667 148.686 34.24C148.686 29.4933 150.446 25.92 153.966 23.52C157.486 21.0667 161.619 19.84 166.366 19.84C171.113 19.84 175.166 21.0667 178.526 23.52C181.939 25.9733 183.646 29.5467 183.646 34.24C183.646 40.32 179.859 45.2533 172.286 49.04L179.406 56.32L185.086 47.6H199.646L187.406 64L201.486 78ZM171.886 34.64C171.886 33.1467 171.379 31.92 170.366 30.96C169.406 29.9467 168.126 29.44 166.526 29.44C164.979 29.44 163.673 29.9467 162.606 30.96C161.593 31.92 161.086 33.1467 161.086 34.64C161.086 37.2 162.499 39.6533 165.326 42C169.699 40.24 171.886 37.7867 171.886 34.64ZM171.806 64.48L161.806 54.08C157.806 55.68 155.806 58.2133 155.806 61.68C155.806 63.8133 156.579 65.5467 158.126 66.88C159.673 68.16 161.459 68.8 163.486 68.8C166.899 68.8 169.673 67.36 171.806 64.48Z" fill="#A3C2FF"/>
<path d="M83.2188 87.36L67.0588 144H53.5388L42.3387 105.68H42.0988L30.8988 144H17.2988L1.21875 87.36H15.9388L24.8988 125.04H25.1388L35.2188 87.36H49.4588L59.6188 125.04H59.8588L68.9788 87.36H83.2188ZM108.999 128V126.64H107.319C99.1594 126.64 95.0794 128.453 95.0794 132.08C95.0794 133.467 95.6394 134.507 96.7594 135.2C97.8794 135.84 99.2127 136.16 100.759 136.16C103.373 136.16 105.399 135.44 106.839 134C108.279 132.507 108.999 130.507 108.999 128ZM91.5594 116.72L84.9194 109.6C89.666 105.12 95.586 102.88 102.679 102.88C109.239 102.88 113.933 104.56 116.759 107.92C119.586 111.227 120.999 116.56 120.999 123.92V144H108.999V139.76H108.759C107.799 141.36 106.279 142.64 104.199 143.6C102.119 144.507 99.8794 144.96 97.4794 144.96C95.1327 144.96 92.9194 144.613 90.8394 143.92C88.8127 143.173 86.9994 141.813 85.3994 139.84C83.7994 137.867 82.9994 135.413 82.9994 132.48C82.9994 123.52 91.5327 119.04 108.599 119.04V118.4C108.599 116.533 107.933 115.12 106.599 114.16C105.266 113.147 103.533 112.64 101.399 112.64C97.7727 112.64 94.4927 114 91.5594 116.72ZM161.432 108.48L154.232 115.92C151.725 113.52 148.952 112.32 145.912 112.32C144.525 112.32 143.352 112.587 142.392 113.12C141.432 113.653 140.952 114.453 140.952 115.52C140.952 116.587 141.459 117.36 142.472 117.84C143.485 118.32 145.405 118.88 148.232 119.52C156.712 121.44 160.952 125.493 160.952 131.68C160.952 136.32 159.272 139.76 155.912 142C152.605 144.187 148.605 145.28 143.912 145.28C140.605 145.28 137.379 144.747 134.232 143.68C131.139 142.613 128.579 141.093 126.552 139.12L133.912 131.36C136.632 134.347 139.885 135.84 143.672 135.84C144.952 135.84 146.045 135.573 146.952 135.04C147.912 134.453 148.392 133.573 148.392 132.4C148.392 131.227 147.805 130.347 146.632 129.76C145.512 129.173 143.459 128.533 140.472 127.84C132.739 126.027 128.872 122.16 128.872 116.24C128.872 111.867 130.552 108.56 133.912 106.32C137.272 104.027 141.112 102.88 145.432 102.88C152.099 102.88 157.432 104.747 161.432 108.48ZM207.966 144H194.766V122.4C194.766 116.8 192.82 114 188.926 114C186.74 114 185.006 114.8 183.726 116.4C182.446 118 181.806 120.027 181.806 122.48V144H168.686V83.52H181.806V109.2H181.966C182.926 107.493 184.42 106.053 186.446 104.88C188.473 103.653 190.793 103.04 193.406 103.04C198.42 103.04 202.1 104.64 204.446 107.84C206.793 110.987 207.966 114.827 207.966 119.36V144Z" fill="#0054A8"/>
<rect x="141" y="96" width="10" height="10" fill="#0054A8"/>
<rect x="141" y="141" width="10" height="10" fill="#0054A8"/>
<circle cx="11" cy="95" r="3" fill="white"/>
<path fill-rule="evenodd" clip-rule="evenodd" d="M12.0448 92.7328C11.2558 92.1863 10.1916 92.2935 9.5 93C9.13681 93.371 8.88148 93.9245 8.79587 94.4884C8.84443 94.3155 8.91196 94.1515 9 94C9.62923 92.9174 10.8898 92.43 12.0448 92.7328Z" fill="#0054A8"/>
<circle cx="12" cy="98.1149" r="1.05" fill="white" stroke="#0054A8" stroke-width="0.1"/>
<path fill-rule="evenodd" clip-rule="evenodd" d="M12.3483 97.3591C12.0853 97.177 11.7305 97.2127 11.5 97.4482C11.3789 97.5719 11.2938 97.7564 11.2653 97.9443C11.2815 97.8867 11.304 97.832 11.3333 97.7815C11.5431 97.4207 11.9633 97.2582 12.3483 97.3591Z" fill="#0054A8"/>
<circle cx="14.5" cy="96.6723" r="1.55" fill="white" stroke="#0054A8" stroke-width="0.1"/>
<path fill-rule="evenodd" clip-rule="evenodd" d="M15.0224 95.5387C14.6279 95.2654 14.0958 95.3191 13.75 95.6723C13.5684 95.8578 13.4407 96.1345 13.3979 96.4164C13.4222 96.33 13.456 96.248 13.5 96.1723C13.8146 95.631 14.4449 95.3873 15.0224 95.5387Z" fill="#0054A8"/>
</svg>
