<?xml version="1.0" standalone="no"?>
<!DOCTYPE svg PUBLIC "-//W3C//DTD SVG 20010904//EN"
 "http://www.w3.org/TR/2001/REC-SVG-20010904/DTD/svg10.dtd">
<svg version="1.0" xmlns="http://www.w3.org/2000/svg"
 width="600.000000pt" height="600.000000pt" viewBox="0 0 600.000000 600.000000"
 preserveAspectRatio="xMidYMid meet">

<g transform="translate(0.000000,600.000000) scale(0.100000,-0.100000)"
fill="#000000" stroke="none">
<path d="M2720 4450 c-183 -33 -392 -113 -533 -203 l-57 -37 0 -55 0 -55 865
0 865 0 0 54 c0 54 0 54 -48 85 -131 84 -341 169 -512 206 -121 27 -447 30
-580 5z"/>
<path d="M2427 3897 c-69 -91 -77 -107 -77 -152 0 -51 27 -92 77 -116 73 -35
151 -3 177 75 19 56 6 95 -62 186 l-60 79 -55 -72z"/>
<path d="M2954 3919 c-87 -116 -89 -120 -89 -175 0 -45 4 -57 29 -83 76 -79
197 -53 226 49 14 49 -3 101 -53 163 -24 28 -50 62 -59 75 l-15 23 -39 -52z"/>
<path d="M3442 3888 c-83 -109 -92 -161 -37 -227 94 -111 278 -3 222 132 -12
27 -77 120 -121 174 -1 1 -30 -34 -64 -79z"/>
<path d="M3224 3560 c-81 -109 -94 -133 -94 -176 0 -115 134 -173 222 -95 24
22 32 37 35 77 6 58 -8 93 -67 164 -20 25 -41 53 -47 63 -9 17 -14 13 -49 -33z"/>
<path d="M2694 3533 c-66 -88 -74 -104 -74 -151 0 -55 35 -103 88 -122 37 -13
47 -13 84 0 73 26 111 117 77 183 -15 29 -112 157 -119 157 -3 0 -28 -30 -56
-67z"/>
<path d="M2285 3059 c-30 -27 -41 -50 -79 -167 -52 -161 -40 -154 -222 -150
-138 3 -144 1 -170 -68 -17 -43 -16 -46 3 -71 14 -19 45 -35 109 -56 49 -16
91 -32 94 -34 2 -2 -36 -41 -85 -87 l-90 -83 -3 -409 -3 -409 203 2 203 2 3
101 3 100 749 0 749 0 3 -100 3 -101 203 -2 203 -2 -3 409 -3 409 -90 83 c-49
46 -87 85 -85 87 3 2 45 18 94 34 129 42 149 75 96 161 l-20 32 -137 1 c-76 0
-146 4 -157 8 -13 5 -31 45 -62 143 -38 117 -49 140 -79 167 l-36 31 -679 0
-679 0 -36 -31z m1404 -283 c34 -101 61 -187 61 -190 0 -3 -337 -6 -750 -6
-412 0 -750 2 -750 5 0 2 27 88 60 190 l61 185 629 0 629 0 60 -184z m-1436
-510 c96 -21 166 -41 178 -52 29 -26 25 -78 -7 -103 -25 -19 -40 -21 -206 -21
-177 0 -179 0 -203 25 -21 20 -25 34 -25 83 0 32 6 65 13 74 18 23 50 37 72
32 11 -2 91 -19 178 -38z m1716 29 c35 -18 41 -32 41 -101 0 -45 -4 -59 -25
-79 -24 -25 -26 -25 -203 -25 -166 0 -181 2 -206 21 -32 25 -36 77 -6 104 12
11 84 32 192 56 95 20 174 38 176 38 2 1 16 -6 31 -14z"/>
</g>
</svg>
